<?xml version="1.0" encoding="UTF-8" standalone="no"?>
<svg
   xmlns:dc="http://purl.org/dc/elements/1.1/"
   xmlns:cc="http://creativecommons.org/ns#"
   xmlns:rdf="http://www.w3.org/1999/02/22-rdf-syntax-ns#"
   xmlns:svg="http://www.w3.org/2000/svg"
   xmlns="http://www.w3.org/2000/svg"
   xmlns:sodipodi="http://sodipodi.sourceforge.net/DTD/sodipodi-0.dtd"
   xmlns:inkscape="http://www.inkscape.org/namespaces/inkscape"
   version="1.1"
   id="svg2"
   xml:space="preserve"
   width="154.10168"
   height="111.5204"
   viewBox="0 0 154.10169 111.5204"
   sodipodi:docname="logo.svg"
   inkscape:version="1.0.1 (3bc2e813f5, 2020-09-07)"><metadata
     id="metadata8"><rdf:RDF><cc:Work
         rdf:about=""><dc:format>image/svg+xml</dc:format><dc:type
           rdf:resource="http://purl.org/dc/dcmitype/StillImage" /><dc:title></dc:title></cc:Work></rdf:RDF></metadata><defs
     id="defs6"><clipPath
       clipPathUnits="userSpaceOnUse"
       id="clipPath22"><path
         d="M 0,459 H 682 V 0 H 0 Z"
         id="path20" /></clipPath></defs><sodipodi:namedview
     pagecolor="#ffffff"
     bordercolor="#666666"
     borderopacity="1"
     objecttolerance="10"
     gridtolerance="10"
     guidetolerance="10"
     inkscape:pageopacity="0"
     inkscape:pageshadow="2"
     inkscape:window-width="1456"
     inkscape:window-height="856"
     id="namedview4"
     showgrid="false"
     fit-margin-top="0"
     fit-margin-left="0"
     fit-margin-right="0"
     fit-margin-bottom="0"
     inkscape:zoom="0.81026974"
     inkscape:cx="107.43873"
     inkscape:cy="73.911214"
     inkscape:window-x="2574"
     inkscape:window-y="348"
     inkscape:window-maximized="0"
     inkscape:current-layer="g18" /><g
     id="g10"
     inkscape:groupmode="layer"
     inkscape:label="444"
     transform="matrix(1.3333333,0,0,-1.3333333,-377.61586,379.54359)"><g
       id="g16"><g
         id="g18"
         clip-path="url(#clipPath22)"><g
           id="g56"
           transform="translate(328.6904,280.1777)"><path
             d="M 0,0 0.389,1.67 1.584,2.241 0.402,2.79 0,4.48 -0.389,2.81 -1.582,2.241 -0.403,1.691 Z"
             style="fill:#421274;fill-opacity:1;fill-rule:nonzero;stroke:none"
             id="path58" /></g><g
           id="g60"
           transform="translate(320.4497,274.8911)"><path
             d="M 0,0 0.777,3.341 3.167,4.48 0.806,5.58 0,8.961 -0.777,5.62 -3.167,4.48 -0.806,3.382 Z"
             style="fill:#421274;fill-opacity:1;fill-rule:nonzero;stroke:none"
             id="path62" /></g><g
           id="g64"
           transform="translate(389.1631,260.9438)"><path
             d="M 0,0 0.39,1.67 1.584,2.24 0.403,2.789 0,4.481 -0.389,2.81 -1.582,2.24 -0.402,1.691 Z"
             style="fill:#421274;fill-opacity:1;fill-rule:nonzero;stroke:none"
             id="path66" /></g><g
           id="g68"
           transform="translate(383.4424,255.6567)"><path
             d="M 0,0 0.777,3.341 3.167,4.48 0.806,5.58 0,8.961 -0.777,5.62 -3.167,4.48 -0.806,3.382 Z"
             style="fill:#421274;fill-opacity:1;fill-rule:nonzero;stroke:none"
             id="path70" /></g><g
           id="g72"
           transform="translate(305.1602,226.3008)"><path
             d="M 0,0 0.389,1.671 1.583,2.241 0.402,2.79 0,4.48 -0.389,2.81 -1.582,2.241 -0.403,1.691 Z"
             style="fill:#421274;fill-opacity:1;fill-rule:nonzero;stroke:none"
             id="path74" /></g><g
           id="g76"
           transform="translate(299.4395,221.0146)"><path
             d="M 0,0 0.776,3.341 3.167,4.479 0.806,5.579 0,8.96 -0.777,5.62 -3.167,4.479 -0.806,3.382 Z"
             style="fill:#421274;fill-opacity:1;fill-rule:nonzero;stroke:none"
             id="path78" /></g><g
           id="g80"
           transform="translate(372.1621,213.8359)"><path
             d="M 0,0 0.389,1.67 1.584,2.241 0.402,2.789 0,4.48 -0.389,2.811 -1.582,2.241 -0.403,1.691 Z"
             style="fill:#421274;fill-opacity:1;fill-rule:nonzero;stroke:none"
             id="path82" /></g><g
           id="g84"
           transform="translate(366.4414,208.5488)"><path
             d="M 0,0 0.776,3.342 3.167,4.48 0.806,5.58 0,8.961 -0.777,5.621 -3.167,4.48 -0.806,3.383 Z"
             style="fill:#421274;fill-opacity:1;fill-rule:nonzero;stroke:none"
             id="path86" /></g><g
           id="g88"
           transform="translate(331.6099,269.0479)"><path
             d="m 0,0 c -0.02,-1.146 0.043,-2.295 -0.037,-3.44 l 0.056,-0.016 c 1.119,0.12 2.251,0.018 3.376,0.059 0.004,-1.135 10e-4,-2.27 10e-4,-3.404 1.139,-0.004 2.275,0.002 3.414,-0.004 0.002,-1.13 0.004,-2.259 -0.003,-3.389 1.131,-0.061 2.268,0.02 3.4,-0.041 0.077,-0.627 -0.071,-1.256 -0.002,-1.884 0.046,-0.492 -10e-4,-0.987 0.002,-1.481 1.126,-0.002 2.253,0.002 3.381,-0.003 v 3.391 C 13.586,-5.679 13.59,-1.146 13.586,3.389 7.922,3.382 2.259,3.4 -3.405,3.38 -3.404,2.258 -3.399,1.136 -3.407,0.015 -2.272,-0.018 -1.135,0.009 0,0"
             style="fill:#340857;fill-opacity:1;fill-rule:nonzero;stroke:none"
             id="path90" /></g><g
           id="g92"
           transform="translate(321.4053,258.8516)"><path
             d="M 0,0 C 1.138,-0.042 2.277,-0.004 3.416,-0.021 3.414,-1.149 3.415,-2.277 3.415,-3.406 c 3.392,0.003 6.785,0.002 10.176,0.002 -0.003,1.132 0.027,2.263 -0.015,3.393 C 12.448,-0.03 11.321,-0.018 10.193,-0.019 10.186,1.112 10.19,2.244 10.192,3.375 9.058,3.391 7.925,3.369 6.791,3.386 6.78,4.519 6.812,5.654 6.773,6.787 5.654,6.778 4.534,6.789 3.414,6.78 3.352,7.913 3.399,9.05 3.385,10.183 2.258,10.188 1.131,10.178 0.005,10.188 0.004,9.057 -0.002,7.924 0.01,6.791 -1.125,6.773 -2.26,6.787 -3.395,6.783 -3.402,5.653 -3.396,4.523 -3.398,3.393 -2.264,3.396 -1.13,3.389 0.002,3.397 0.002,2.264 0.008,1.132 0,0"
             style="fill:#340857;fill-opacity:1;fill-rule:nonzero;stroke:none"
             id="path94" /></g><g
           id="g96"
           transform="translate(358.8066,255.4482)"><path
             d="M 0,0 C 0.002,1.127 -0.008,2.256 0.005,3.383 1.144,3.396 2.279,3.365 3.417,3.4 3.408,4.533 3.412,5.667 3.415,6.799 4.54,6.8 5.664,6.797 6.789,6.8 c 0.028,1.128 0.005,2.256 0.012,3.384 -0.002,1.134 0,2.269 0,3.402 C 4.542,13.59 2.285,13.583 0.027,13.59 0.013,12.454 0.059,11.316 0.003,10.181 -1.121,10.193 -2.245,10.179 -3.369,10.189 -3.38,9.055 -3.373,7.92 -3.373,6.786 -4.51,6.779 -5.646,6.791 -6.78,6.78 -6.78,5.646 -6.773,4.513 -6.785,3.379 -7.92,3.392 -9.053,3.37 -10.188,3.39 -10.181,2.257 -10.189,1.124 -10.183,-0.009 -6.789,0.009 -3.394,-0.006 0,0"
             style="fill:#340857;fill-opacity:1;fill-rule:nonzero;stroke:none"
             id="path98" /></g><g
           id="g100"
           transform="translate(372.4072,258.8306)"><path
             d="M 0,0 C -0.006,1.137 0.017,2.274 -0.013,3.411 -1.139,3.393 -2.263,3.407 -3.389,3.403 -3.387,2.268 -3.391,1.135 -3.385,0 -4.52,0.002 -5.652,-0.004 -6.784,0.004 c -0.009,-1.13 -0.004,-2.26 -0.002,-3.389 2.262,0.006 4.523,0 6.786,0.002 -0.001,1.128 -0.002,2.255 0,3.383"
             style="fill:#340857;fill-opacity:1;fill-rule:nonzero;stroke:none"
             id="path102" /></g><g
           id="g104"
           transform="translate(317.9912,255.4482)"><path
             d="M 0,0 C 0.012,1.122 -0.007,2.245 0.012,3.367 -1.119,3.404 -2.25,3.374 -3.381,3.383 -4.519,3.375 -5.657,3.397 -6.794,3.371 -6.771,2.246 -6.796,1.121 -6.78,-0.003 -4.52,0.003 -2.26,-0.003 0,0"
             style="fill:#340857;fill-opacity:1;fill-rule:nonzero;stroke:none"
             id="path106" /></g><g
           id="g108"
           transform="translate(324.8257,252.0361)"><path
             d="m 0,0 c -0.013,-3.393 -0.001,-6.784 -0.006,-10.176 0.637,-0.033 1.276,0.032 1.912,-0.019 0.492,0.049 0.983,-0.009 1.474,-0.026 v -10.183 c 1.135,-0.008 2.27,-0.003 3.404,-0.003 0,-2.269 0,-4.536 0,-6.805 1.131,0.008 2.263,-0.029 3.393,0.022 0.009,-2.276 0.002,-4.551 0.004,-6.827 1.138,0.008 2.277,0.003 3.416,0.002 0.001,-0.362 -10e-4,-0.725 -0.002,-1.088 0.183,0.044 0.365,0.086 0.548,0.133 0.937,0.235 1.877,0.485 2.816,0.743 0,0.07 0.001,0.138 0,0.208 0.247,0.003 0.494,0.002 0.74,0.002 0.587,0.166 1.175,0.329 1.757,0.502 0.305,0.091 0.61,0.188 0.916,0.282 0.001,2.007 -0.006,4.017 0.005,6.025 1.137,0.031 2.273,-0.011 3.411,0.019 -0.01,2.26 -0.006,4.522 -0.003,6.784 1.125,-0.004 2.25,0.008 3.375,-0.01 0.069,0.837 0.016,1.676 0.032,2.515 0.004,5.966 -0.006,11.932 0.006,17.898 C 18.131,-0.001 9.066,-0.005 0,0"
             style="fill:#340857;fill-opacity:1;fill-rule:nonzero;stroke:none"
             id="path110" /></g><g
           id="g112"
           transform="translate(365.6221,252.0342)"><path
             d="m 0,0 c -0.017,-3.407 0.019,-6.816 -0.018,-10.224 -1.128,0.012 -2.257,-0.003 -3.385,0.008 0.025,-3.4 0.008,-6.802 0.009,-10.202 -1.133,0.004 -2.267,0.002 -3.4,10e-4 0.015,-1.764 0.004,-3.526 0.006,-5.29 -0.008,-0.507 0.026,-1.017 -0.034,-1.522 -1.123,0.009 -2.246,0 -3.369,0.005 0.003,-0.814 0.001,-1.627 0.001,-2.441 1.002,0.396 2.01,0.807 3.02,1.234 0.119,0.051 0.236,0.104 0.356,0.155 0.002,0.352 0.002,0.705 0.011,1.056 0.799,0.055 1.599,0.008 2.399,0.004 0.258,0.116 0.518,0.231 0.774,0.35 0.077,0.035 0.151,0.071 0.229,0.107 -0.001,0.985 -0.014,1.969 0.012,2.952 1.13,0.027 2.267,-0.075 3.391,0.053 -0.028,2.253 -0.025,4.508 -0.002,6.761 1.122,-0.015 2.242,0.005 3.365,-0.013 0.04,1.136 0.007,2.274 0.018,3.41 1.132,0.026 2.263,0.008 3.396,0.01 0.019,1.135 -0.01,2.27 0.014,3.404 0.564,0.035 1.127,-0.01 1.69,-0.017 0.568,0.02 1.134,0.041 1.702,0.023 0.006,1.126 -0.016,2.253 0.011,3.378 1.131,0.009 2.263,-0.029 3.394,0.019 -0.005,2.26 -0.009,4.519 10e-4,6.778 C 9.061,0 4.529,-0.002 0,0"
             style="fill:#340857;fill-opacity:1;fill-rule:nonzero;stroke:none"
             id="path114" /></g><g
           id="g116"
           transform="translate(328.1963,224.8086)"><path
             d="M 0,0 C -0.002,1.135 0,2.27 -0.001,3.402 -1.13,3.404 -2.257,3.396 -3.385,3.406 -3.435,4.544 -3.384,5.684 -3.416,6.821 -4.542,6.797 -5.668,6.82 -6.794,6.804 c -0.018,2.276 0.004,4.553 -0.012,6.828 -1.132,0.005 -2.264,10e-4 -3.396,10e-4 -0.013,2.263 0.026,4.528 -0.019,6.791 -2.26,-0.013 -4.52,-0.004 -6.78,-0.005 0,1.129 -0.005,2.258 0.004,3.387 -2.263,0.036 -4.528,0.006 -6.792,0.015 -1.132,-0.003 -2.266,-0.002 -3.399,-0.001 -0.005,-1.131 -0.006,-2.262 0,-3.394 1.136,-0.012 2.272,0.02 3.407,-0.015 -0.018,-1.121 -0.001,-2.241 -0.01,-3.36 0.598,0.034 1.193,-0.08 1.79,-0.013 0.532,0.043 1.063,-0.057 1.595,-0.023 0.039,-1.126 0.004,-2.252 0.022,-3.378 1.13,0.009 2.26,10e-4 3.39,0.005 0.009,-1.136 0,-2.272 0.005,-3.408 1.135,-0.024 2.272,0.008 3.407,-0.016 -0.016,-1.133 -0.005,-2.267 -0.005,-3.399 1.133,-0.001 2.268,0.004 3.401,-0.003 -0.003,-1.133 -0.009,-2.269 0.003,-3.404 1.13,0.007 2.259,-0.004 3.388,0.007 0.016,-1.129 0.007,-2.258 0.004,-3.386 1.138,-0.029 2.276,-0.015 3.414,-0.024 10e-4,-1.13 0.002,-2.262 0,-3.394 1.129,10e-4 2.26,0.007 3.389,-0.002 0.01,-1.134 -0.032,-2.267 0.021,-3.401 1.124,0.007 2.247,0.001 3.37,0.002 0,1.132 10e-4,2.264 0,3.395 -1.129,0.007 -2.259,0.006 -3.388,0 C -0.021,-2.26 0.009,-1.13 0,0"
             style="fill:#340857;fill-opacity:1;fill-rule:nonzero;stroke:none"
             id="path118" /></g><g
           id="g120"
           transform="translate(352.042,216.5781)"><path
             d="m 0,0 c -0.005,-0.002 -0.01,-0.003 -0.015,-0.005 0,-0.645 0,-1.292 -0.001,-1.938 1.132,0 2.264,0.002 3.396,0 -0.002,1.058 0,2.119 -0.002,3.179 C 2.279,0.818 1.146,0.402 0,0"
             style="fill:#421274;fill-opacity:1;fill-rule:nonzero;stroke:none"
             id="path122" /></g><g
           id="g124"
           transform="translate(348.6211,211.2324)"><path
             d="m 0,0 c 1.133,0.004 2.264,0 3.396,0.002 0,1.129 0,2.258 0,3.385 -1.132,0.009 -2.264,0 -3.397,0.006 C 0.001,2.262 0,1.131 0,0"
             style="fill:#421274;fill-opacity:1;fill-rule:nonzero;stroke:none"
             id="path126" /></g><g
           id="g128"
           transform="translate(348.6035,258.8364)"><path
             d="M 0,0 C 0.02,1.138 -0.001,2.276 0.012,3.415 1.146,3.401 2.28,3.412 3.415,3.409 3.412,4.542 3.413,5.678 3.414,6.811 4.549,6.808 5.683,6.81 6.818,6.81 6.816,7.943 6.82,9.076 6.815,10.208 c 1.127,0.006 2.256,0.008 3.384,0 0.008,1.13 0,2.26 0.005,3.391 C 5.667,13.601 1.13,13.6 -3.407,13.6 -3.403,9.066 -3.407,4.532 -3.405,-0.001 -2.271,-0.004 -1.135,-0.006 0,0"
             style="fill:#6a21bf;fill-opacity:1;fill-rule:nonzero;stroke:none"
             id="path130" /></g><g
           id="g132"
           transform="translate(335.0117,258.8237)"><path
             d="m 0,0 c -0.024,1.135 -0.008,2.27 -0.009,3.404 -1.134,0.012 -2.27,0 -3.404,0.006 0.017,1.12 -0.031,2.241 0.03,3.359 l -0.056,0.015 c -1.123,0.062 -2.255,0.007 -3.379,0.028 0.003,1.134 0.004,2.269 -0.002,3.404 -1.134,-0.008 -2.267,-10e-4 -3.401,-0.005 0.014,-1.133 -0.033,-2.27 0.029,-3.403 1.12,0.008 2.239,-0.002 3.359,0.006 0.039,-1.132 0.007,-2.267 0.018,-3.4 1.133,-0.017 2.267,0.005 3.4,-0.011 -0.002,-1.132 -0.005,-2.263 0.002,-3.394 1.127,0.001 2.254,-0.011 3.382,0.008 0.043,-1.13 0.012,-2.262 0.015,-3.393 C 1.126,-3.364 2.268,-3.4 3.41,-3.357 3.399,-2.242 3.394,-1.125 3.413,-0.01 2.276,0.024 1.137,0.007 0,0"
             style="fill:#ffffff;fill-opacity:1;fill-rule:nonzero;stroke:none"
             id="path134" /></g><g
           id="g136"
           transform="translate(358.8066,255.4482)"><path
             d="m 0,0 c 1.137,-0.001 2.274,0 3.412,-0.001 -0.002,1.129 0,2.26 0,3.389 1.128,-0.007 2.257,-10e-4 3.386,-0.004 0.006,1.138 0.001,2.275 0.001,3.413 1.134,-10e-4 2.266,-10e-4 3.4,0 0.002,1.13 10e-4,2.259 10e-4,3.389 C 9.066,10.185 7.935,10.189 6.801,10.184 6.794,9.056 6.817,7.928 6.789,6.8 5.664,6.797 4.54,6.8 3.415,6.799 3.412,5.667 3.408,4.533 3.417,3.4 2.279,3.365 1.144,3.396 0.005,3.383 -0.008,2.256 0.002,1.127 0,0"
             style="fill:#ffffff;fill-opacity:1;fill-rule:nonzero;stroke:none"
             id="path138" /></g><g
           id="g140"
           transform="translate(318.0034,258.8149)"><path
             d="M 0,0 C -0.02,-1.122 0,-2.245 -0.012,-3.367 1.123,-3.37 2.257,-3.362 3.392,-3.371 3.397,-2.24 3.387,-1.11 3.397,0.02 2.261,0.013 1.124,0.014 -0.013,0.02 0,1.15 -0.015,2.28 -0.005,3.41 -1.136,3.422 -2.268,3.424 -3.398,3.41 -3.392,2.278 -3.401,1.147 -3.393,0.016 -2.263,0.007 -1.131,0.038 0,0"
             style="fill:#ffffff;fill-opacity:1;fill-rule:nonzero;stroke:none"
             id="path142" /></g><g
           id="g144"
           transform="translate(375.8086,258.8306)"><path
             d="m 0,0 c -1.135,0 -2.268,0 -3.401,0 -0.002,-1.128 -0.001,-2.255 0,-3.383 1.132,10e-4 2.266,0 3.4,10e-4 C -0.003,-2.255 -0.003,-1.128 0,0"
             style="fill:#ffffff;fill-opacity:1;fill-rule:nonzero;stroke:none"
             id="path146" /></g><g
           id="g148"
           transform="translate(328.1919,231.6211)"><path
             d="m 0,0 c -1.124,-0.011 -2.249,0.003 -3.373,-0.007 -0.047,0.52 -0.02,1.043 -0.026,1.564 10e-4,2.879 -0.002,5.757 0.002,8.636 -1.13,0.002 -2.261,-10e-4 -3.392,0.001 -0.016,3.407 -0.001,6.814 -0.007,10.22 -5.661,-0.001 -11.32,-0.006 -16.982,0.003 -0.016,-1.136 -0.003,-2.272 -0.006,-3.408 2.263,-0.009 4.528,0.021 6.791,-0.015 -0.009,-1.13 -0.004,-2.258 -0.004,-3.388 2.26,10e-4 4.52,-0.008 6.78,0.006 0.045,-2.263 0.007,-4.529 0.019,-6.791 1.132,0 2.264,0.003 3.397,-10e-4 0.015,-2.275 -0.007,-4.552 0.011,-6.828 1.126,0.016 2.252,-0.008 3.379,0.017 0.031,-1.138 -0.019,-2.277 0.03,-3.415 1.129,-0.01 2.256,-0.002 3.384,-0.004 C 0.001,-2.273 0.006,-1.137 0,0"
             style="fill:#6a21bf;fill-opacity:1;fill-rule:nonzero;stroke:none"
             id="path150" /></g><g
           id="g152"
           transform="translate(341.7852,218.0176)"><path
             d="m 0,0 c 0,-0.07 0,-0.139 0,-0.208 0.248,0.067 0.492,0.142 0.739,0.21 C 0.493,0.002 0.246,0.003 0,0"
             style="fill:#9cffeb;fill-opacity:1;fill-rule:nonzero;stroke:none"
             id="path154" /></g><g
           id="g156"
           transform="translate(344.8496,214.2695)"><path
             d="m 0,0 c -0.601,-0.176 -1.199,-0.348 -1.799,-0.513 -0.414,-0.114 -0.829,-0.223 -1.243,-0.334 0.006,-1.857 0.008,-3.714 -0.018,-5.573 1.136,-0.032 2.272,-0.003 3.41,-0.016 -0.004,2.18 0.002,4.36 -0.004,6.539 C 0.229,0.068 0.117,0.033 0,0"
             style="fill:#421274;fill-opacity:1;fill-rule:nonzero;stroke:none"
             id="path158" /></g><g
           id="g160"
           transform="translate(346.0723,214.6328)"><path
             d="M 0,0 C 0.847,0.002 1.692,-0.002 2.539,0.004 2.54,0.266 2.54,0.527 2.54,0.787 L 2.375,0.733 C 1.611,0.488 0.811,0.244 0,0"
             style="fill:#ffffff;fill-opacity:1;fill-rule:nonzero;stroke:none"
             id="path162" /></g><g
           id="g164"
           transform="translate(362.2031,252.0405)"><path
             d="m 0,0 c -3.394,-0.016 -6.786,-0.002 -10.18,-0.006 -0.011,-5.966 -0.002,-11.932 -0.006,-17.898 -0.015,-0.839 0.038,-1.679 -0.032,-2.515 -1.125,0.018 -2.25,0.006 -3.375,0.009 -0.003,-2.262 -0.007,-4.523 0.003,-6.784 -1.138,-0.029 -2.273,0.013 -3.41,-0.018 -0.012,-2.008 -0.005,-4.018 -0.006,-6.026 0.231,0.072 0.462,0.141 0.693,0.213 l 0.164,0.051 c 1.762,0.55 3.55,1.148 5.314,1.779 l 0.215,0.075 c 0.151,0.055 0.29,0.106 0.435,0.159 0,1.247 -10e-4,2.494 -0.002,3.742 1.138,0.025 2.284,-0.058 3.416,0.044 -0.026,2.254 -0.002,4.508 -0.012,6.762 1.129,-0.002 2.257,0.004 3.387,-0.003 v 9.259 c 10e-4,0.329 -0.03,0.665 0.054,0.988 0.915,-0.033 1.832,0.003 2.747,-0.023 0.205,-0.034 0.412,-0.013 0.618,0.02 C -0.005,-6.781 0.04,-3.391 0,0"
             style="fill:#6a21bf;fill-opacity:1;fill-rule:nonzero;stroke:none"
             id="path166" /></g><g
           id="g168"
           transform="translate(356.4736,218.2109)"><path
             d="m 0,0 c -0.165,-0.064 -0.332,-0.127 -0.499,-0.189 0.942,0.002 1.886,0.005 2.828,-0.003 0.012,0.375 0.01,0.751 0.005,1.128 L 2.076,0.828 C 1.39,0.547 0.698,0.271 0,0"
             style="fill:#ffffff;fill-opacity:1;fill-rule:nonzero;stroke:none"
             id="path170" /></g><g
           id="g172"
           transform="translate(382.6074,248.6299)"><path
             d="M 0,0 C 0.008,1.135 0.002,2.268 0.002,3.402 -1.13,3.405 -2.263,3.403 -3.395,3.403 -3.404,1.145 -3.4,-1.114 -3.396,-3.375 c -1.13,-0.048 -2.262,-0.009 -3.393,-0.019 -0.027,-1.125 -0.005,-2.252 -0.012,-3.377 -0.567,0.017 -1.134,-0.004 -1.701,-0.024 -0.563,0.007 -1.126,0.052 -1.69,0.018 -0.025,-1.135 0.004,-2.269 -0.014,-3.405 -1.133,-0.002 -2.265,0.016 -3.397,-0.01 -0.01,-1.136 0.023,-2.274 -0.017,-3.41 -1.123,0.018 -2.243,-0.002 -3.365,0.014 -0.024,-2.254 -0.027,-4.509 0.002,-6.762 -1.124,-0.128 -2.261,-0.026 -3.391,-0.052 -0.026,-0.984 -0.014,-1.968 -0.013,-2.952 1.15,0.531 2.278,1.076 3.385,1.63 0,0.44 0.002,0.879 0,1.319 0.851,-0.002 1.701,-0.002 2.552,-10e-4 0.287,0.152 0.567,0.306 0.85,0.461 -0.001,0.98 0.003,1.962 -0.003,2.942 1.134,0.002 2.267,0.001 3.403,0.001 0.002,1.136 -0.002,2.272 0.002,3.408 1.133,-0.002 2.265,0.003 3.398,-0.003 -0.004,1.139 -0.001,2.276 -0.001,3.415 1.133,0.003 2.267,0 3.402,0 10e-4,1.112 -0.003,2.222 10e-4,3.332 0.128,0.114 0.307,0.078 0.465,0.081 0.713,-0.035 1.428,0.033 2.141,-0.019 0.265,0.023 0.527,0.013 0.792,-0.027 0.007,1.139 0.004,2.279 0,3.418 1.135,0.004 2.271,-0.004 3.407,0.004 0.002,1.131 -10e-4,2.261 10e-4,3.392 C 2.271,-0.001 1.135,-0.003 0,0"
             style="fill:#6a21bf;fill-opacity:1;fill-rule:nonzero;stroke:none"
             id="path174" /></g><g
           id="g176"
           transform="translate(358.8193,224.8145)"><path
             d="m 0,0 c -0.009,-0.352 -0.01,-0.704 -0.012,-1.057 0.471,0.202 0.94,0.403 1.405,0.608 C 1.73,-0.3 2.063,-0.147 2.398,0.004 1.599,0.008 0.799,0.055 0,0"
             style="fill:#22083c;fill-opacity:1;fill-rule:nonzero;stroke:none"
             id="path178" /></g><g
           id="g180"
           transform="translate(328.1963,224.8086)"><path
             d="m 0,0 c 0.009,-1.13 -0.021,-2.26 0.015,-3.391 1.129,0.006 2.259,0.007 3.388,0 C 3.402,-2.258 3.405,-1.125 3.401,0.006 2.267,-0.006 1.134,0.004 0,0"
             style="fill:#ffffff;fill-opacity:1;fill-rule:nonzero;stroke:none"
             id="path182" /></g><g
           id="g184"
           transform="translate(331.6084,218.0117)"><path
             d="m 0,0 c 0.002,-0.854 0.001,-1.707 0.001,-2.561 0.721,0.135 1.402,0.267 2.048,0.401 0.428,0.088 0.878,0.183 1.343,0.287 0,0.622 0,1.244 0.002,1.867 C 2.262,0.006 1.131,-0.004 0,0"
             style="fill:#ffffff;fill-opacity:1;fill-rule:nonzero;stroke:none"
             id="path186" /></g><g
           id="g188"
           transform="translate(336.1475,212.0488)"><path
             d="m 0,0 -0.287,-0.062 c -0.286,-0.061 -0.569,-0.12 -0.854,-0.18 v -0.57 c 1.132,0.017 2.27,-0.045 3.399,0.031 C 2.267,-0.348 2.266,0.086 2.266,0.52 2.014,0.459 1.762,0.397 1.51,0.339 1.006,0.222 0.503,0.11 0,0"
             style="fill:#ffffff;fill-opacity:1;fill-rule:nonzero;stroke:none"
             id="path190" /></g><g
           id="g192"
           transform="translate(365.6055,226.9062)"><path
             d="M 0,0 C 0.864,0.433 1.716,0.872 2.552,1.317 1.701,1.316 0.851,1.316 0,1.318 0.002,0.879 0,0.439 0,0"
             style="fill:#421274;fill-opacity:1;fill-rule:nonzero;stroke:none"
             id="path194" /></g><g
           id="g196"
           transform="translate(301.0083,248.6289)"><path
             d="M 0,0 C 1.133,-0.001 2.267,-0.002 3.399,0.001 3.403,1.137 3.39,2.273 3.406,3.409 9.067,3.4 14.727,3.405 20.387,3.406 20.394,0 20.379,-3.407 20.395,-6.814 c 1.13,-0.002 2.261,0.001 3.392,-0.001 -0.005,-2.879 -0.002,-5.757 -0.002,-8.636 0.006,-0.521 -0.022,-1.044 0.026,-1.564 1.124,0.011 2.249,-0.004 3.373,0.007 0.006,-1.137 10e-4,-2.273 0.003,-3.41 10e-4,-1.133 -0.001,-2.268 10e-4,-3.402 1.134,0.004 2.267,-0.006 3.401,0.006 0.004,-1.131 0.001,-2.264 0.002,-3.397 10e-4,-1.132 0,-2.264 0,-3.395 -1.123,-10e-4 -2.246,0.004 -3.37,-0.002 -0.053,1.133 -0.011,2.267 -0.021,3.401 -1.129,0.009 -2.26,0.003 -3.389,0.002 0.002,1.132 0.001,2.264 0,3.393 -1.138,0.009 -2.276,-0.004 -3.414,0.025 0.003,1.128 0.012,2.257 -0.004,3.386 -1.129,-0.011 -2.258,0 -3.388,-0.007 -0.012,1.135 -0.006,2.27 -0.003,3.404 -1.133,0.007 -2.268,0.002 -3.401,0.003 0,1.132 -0.011,2.266 0.005,3.399 -1.135,0.024 -2.272,-0.008 -3.407,0.016 -0.005,1.136 0.004,2.272 -0.005,3.408 -1.13,-0.005 -2.26,0.004 -3.39,-0.006 -0.018,1.126 0.017,2.252 -0.022,3.378 C 6.25,-6.839 5.719,-6.739 5.187,-6.782 4.59,-6.85 3.995,-6.735 3.397,-6.77 3.406,-5.65 3.389,-4.53 3.407,-3.41 2.272,-3.374 1.136,-3.407 0,-3.394 -0.006,-2.263 -0.005,-1.131 0,0 m 13.602,10.202 c -0.008,1.131 10e-4,2.262 -0.005,3.394 1.13,0.014 2.262,0.012 3.393,0 -0.01,-1.13 0.006,-2.26 -0.008,-3.39 1.137,-0.006 2.274,-0.007 3.411,0 -0.011,-1.13 -0.001,-2.26 -0.006,-3.391 -1.135,0.009 -2.269,10e-4 -3.404,0.004 -2.26,-0.003 -4.52,0.003 -6.78,-0.003 -0.016,1.124 0.009,2.249 -0.014,3.374 1.137,0.026 2.275,0.004 3.413,0.012 m 3.4,6.804 c 1.135,0.003 2.27,-0.01 3.405,0.007 -0.012,1.133 -0.006,2.266 -0.005,3.398 1.126,-0.01 2.253,0 3.38,-0.005 1.134,0.004 2.268,-0.003 3.402,0.005 0.005,-1.136 0.004,-2.27 10e-4,-3.404 1.125,-0.021 2.256,0.034 3.379,-0.028 0.081,1.145 0.018,2.294 0.038,3.44 -1.136,0.009 -2.273,-0.018 -3.408,0.015 0.008,1.121 0.003,2.243 0.003,3.365 5.663,0.02 11.326,0.002 16.991,0.009 4.537,0 9.074,0.001 13.611,-0.001 -0.005,-1.131 0.003,-2.262 -0.005,-3.392 -1.127,0.008 -2.256,0.006 -3.383,0.001 0.005,-1.133 10e-4,-2.266 0.003,-3.398 -1.136,0 -2.27,-0.002 -3.405,10e-4 -10e-4,-1.134 -0.002,-2.269 10e-4,-3.402 -1.135,0.003 -2.269,-0.009 -3.403,0.005 -0.013,-1.138 0.008,-2.276 -0.012,-3.414 -1.135,-0.006 -2.27,-0.004 -3.405,-10e-4 V 6.816 c -1.128,0.005 -2.255,0.001 -3.382,0.003 -0.002,0.493 0.045,0.989 -10e-4,1.481 -0.07,0.628 0.079,1.257 10e-4,1.884 -1.132,0.061 -2.268,-0.02 -3.399,0.041 0.007,1.129 0.004,2.259 0.002,3.389 -1.138,0.006 -2.275,0 -3.413,0.004 0,1.134 0.003,2.269 -10e-4,3.404 -1.125,-0.042 -2.257,0.061 -3.377,-0.059 -0.061,-1.117 -0.013,-2.238 -0.03,-3.359 1.135,-0.005 2.27,0.006 3.405,-0.005 0.001,-1.135 -0.016,-2.269 0.008,-3.404 1.137,0.007 2.276,0.024 3.413,-0.01 C 37.397,9.07 37.402,7.953 37.413,6.838 36.271,6.794 35.13,6.831 33.988,6.818 c -3.391,0 -6.784,0.001 -10.176,-10e-4 0,1.129 -0.001,2.257 10e-4,3.385 -1.139,0.017 -2.278,-0.021 -3.416,0.021 0.008,1.132 0.002,2.264 0.002,3.397 -1.132,-0.009 -2.266,-10e-4 -3.4,-0.004 0.002,1.13 -0.004,2.259 0.003,3.39 m 40.824,3.404 c 2.257,-0.007 4.514,0 6.773,-0.004 0,-1.134 -0.002,-2.268 0,-3.403 1.134,0.005 2.266,0.001 3.4,0.002 0,-1.13 0.001,-2.259 -10e-4,-3.388 -1.134,-0.001 -2.267,-0.001 -3.401,0 0,-1.138 0.005,-2.275 -10e-4,-3.413 -1.129,0.003 -2.258,-0.004 -3.386,0.004 0,-1.13 -0.002,-2.26 0,-3.39 -1.137,0.001 -2.275,0 -3.412,0.001 -3.393,-0.006 -6.789,0.01 -10.182,-0.008 -0.007,1.132 0.002,2.265 -0.005,3.398 1.135,-0.02 2.267,0.002 3.402,-0.011 0.012,1.134 0.005,2.267 0.005,3.401 1.135,0.011 2.271,-10e-4 3.407,0.006 0,1.135 -0.007,2.27 0.004,3.403 1.124,-0.009 2.248,0.005 3.372,-0.008 0.056,1.136 0.01,2.273 0.025,3.41 m 13.56,-6.798 c 0.03,-1.136 0.007,-2.274 0.013,-3.41 1.134,0 2.267,0 3.401,0 -0.003,-1.128 -0.003,-2.255 -10e-4,-3.383 -1.133,-0.001 -2.267,0 -3.4,-0.001 -2.263,-0.002 -4.524,0.004 -6.786,-0.002 -0.002,1.13 -0.007,2.259 0.002,3.39 1.132,-0.009 2.264,-0.002 3.399,-0.004 -0.006,1.134 -0.002,2.268 -0.004,3.402 1.126,0.004 2.25,-0.01 3.376,0.008 M -0.01,-3.407 c -0.004,-1.137 -0.015,-2.275 0.006,-3.412 1.134,0.005 2.266,0.012 3.4,-0.003 -0.021,-1.121 -10e-4,-2.243 -0.012,-3.364 1.131,10e-4 2.26,-0.005 3.39,0.003 0.025,-1.139 0.002,-2.279 0.012,-3.419 1.133,0.005 2.267,-0.002 3.401,0.004 -0.003,-1.137 0.002,-2.274 -0.003,-3.411 1.135,-0.005 2.269,0 3.404,-0.003 -0.005,-1.135 -0.003,-2.27 0,-3.406 1.133,0.002 2.266,0 3.398,0.002 0.007,-1.135 -0.01,-2.271 0.01,-3.407 1.133,0.009 2.264,-0.003 3.397,0.007 -0.01,-1.131 -0.004,-2.262 -0.003,-3.393 1.127,-0.002 2.256,0.016 3.382,-0.007 0.051,-1.132 -0.037,-2.273 0.042,-3.406 1.123,0.015 2.248,-0.008 3.371,0.012 0.003,-1.051 0.002,-2.103 0.002,-3.154 0.638,0.101 1.279,0.204 1.924,0.317 0.521,0.092 1.013,0.18 1.49,0.269 0,0.854 0.002,1.707 -10e-4,2.561 1.131,-0.004 2.262,0.006 3.394,-0.006 -0.002,-0.623 -0.002,-1.245 -0.002,-1.867 0.684,0.149 1.408,0.314 2.197,0.501 l 0.254,0.059 c 0.323,0.076 0.646,0.157 0.969,0.235 0.002,0.362 0.003,0.725 0.002,1.088 -1.139,10e-4 -2.278,0.005 -3.416,-0.002 -10e-4,2.275 0.005,4.55 -0.003,6.826 -1.131,-0.051 -2.263,-0.014 -3.393,-0.022 -0.001,2.269 0,4.536 -0.001,6.805 -1.134,0 -2.269,-0.004 -3.404,0.003 v 10.183 c -0.491,0.017 -0.981,0.075 -1.473,0.026 -0.637,0.052 -1.275,-0.014 -1.913,0.019 0.005,3.392 -0.006,6.784 0.006,10.176 C 32.883,3.402 41.949,3.406 51.015,3.405 54.409,3.409 57.801,3.396 61.195,3.412 61.235,0.021 61.19,-3.37 61.218,-6.76 61.012,-6.793 60.805,-6.814 60.6,-6.78 59.685,-6.754 58.768,-6.79 57.853,-6.758 57.769,-7.081 57.8,-7.416 57.798,-7.745 v -9.259 c -1.13,0.007 -2.257,0.001 -3.386,0.003 0.009,-2.254 -0.014,-4.509 0.011,-6.763 -1.131,-0.101 -2.277,-0.018 -3.415,-0.044 10e-4,-1.248 0.002,-2.495 0.002,-3.742 1.074,0.39 2.002,0.737 2.872,1.075 0.18,0.071 0.361,0.145 0.541,0.215 0,0.815 0.002,1.627 -0.001,2.442 1.123,-0.006 2.246,0.004 3.37,-0.006 0.06,0.506 0.026,1.015 0.034,1.522 -0.002,1.764 0.008,3.526 -0.006,5.29 1.133,0.001 2.266,0.003 3.4,-0.001 -10e-4,3.4 0.016,6.802 -0.01,10.202 1.128,-0.011 2.257,0.004 3.386,-0.008 0.036,3.408 10e-4,6.817 0.018,10.224 4.529,-0.002 9.06,0 13.591,-10e-4 1.131,0 2.264,0.002 3.396,-10e-4 0,-1.134 0.006,-2.267 -0.002,-3.402 C 82.734,-0.002 83.871,0 85.007,0 c -0.002,-1.131 10e-4,-2.261 -0.001,-3.392 -1.135,-0.008 -2.272,0 -3.407,-0.004 0.004,-1.139 0.007,-2.279 0,-3.418 -0.265,0.04 -0.527,0.05 -0.792,0.027 -0.713,0.052 -1.428,-0.016 -2.14,0.019 -0.159,-0.003 -0.337,0.033 -0.466,-0.081 -0.004,-1.11 0,-2.22 -10e-4,-3.332 -1.135,0 -2.269,0.003 -3.402,0 0,-1.139 -0.003,-2.277 0.001,-3.415 -1.132,0.006 -2.265,10e-4 -3.398,0.003 -0.004,-1.136 0,-2.272 -0.002,-3.408 -1.136,0 -2.269,0.001 -3.402,-10e-4 0.005,-0.98 0.002,-1.962 0.003,-2.942 1.166,0.634 2.304,1.279 3.41,1.936 -10e-4,0.331 0,0.662 -0.005,0.994 0.55,0.003 1.098,10e-4 1.647,10e-4 0.6,0.372 1.188,0.747 1.767,1.125 -0.005,0.764 -0.022,1.528 0.009,2.292 1.115,-0.009 2.229,-0.003 3.343,-0.004 0.015,0.01 0.028,0.021 0.042,0.031 -0.005,1.128 -0.002,2.255 -10e-4,3.383 1.134,-10e-4 2.268,0 3.402,-10e-4 -0.005,1.123 0.005,2.245 -0.005,3.368 1.135,0.008 2.269,0.004 3.405,0.002 0.005,1.138 0.007,2.276 0,3.415 1.137,0.002 2.277,0.001 3.415,0 0.001,1.136 -0.004,2.272 0.002,3.408 -1.138,0.008 -2.276,0.002 -3.414,0.003 0,1.137 0.003,2.273 -0.002,3.409 -1.134,-0.005 -2.27,-0.003 -3.404,-0.001 0.002,1.135 0.008,2.27 -0.004,3.403 -1.134,0.004 -2.268,-0.014 -3.401,0.01 0.012,1.125 0,2.249 0.007,3.374 -1.129,0 -2.256,0.004 -3.384,-0.002 -0.026,1.137 -0.006,2.276 -0.011,3.412 -1.137,0.004 -2.272,0.002 -3.408,0.002 0.007,1.132 -0.004,2.264 0.006,3.397 -1.136,0.011 -2.269,0.002 -3.405,0.004 -10e-4,1.135 0,2.268 0,3.402 h -3.4 c -0.004,1.135 0.008,2.269 -0.006,3.404 -1.128,-0.009 -2.255,0.004 -3.382,-0.007 -0.004,1.139 0.005,2.277 -0.005,3.416 C 48.815,27.23 36.411,27.233 24.007,27.23 23.959,27.222 23.862,27.205 23.812,27.196 23.746,26.081 23.803,24.944 23.785,23.82 c -1.132,-0.001 -2.264,-0.001 -3.396,0 -0.006,-1.134 0.009,-2.269 -0.008,-3.405 -1.131,0.01 -2.261,-10e-4 -3.391,0.006 -0.007,-1.134 -10e-4,-2.269 -0.003,-3.404 -1.133,0.002 -2.267,0 -3.401,0.001 10e-4,-1.134 -0.003,-2.269 0.002,-3.404 -1.133,0.005 -2.268,0 -3.402,0.004 -10e-4,-1.135 0,-2.27 0,-3.405 C 9.052,10.195 7.918,10.207 6.785,10.208 6.784,9.077 6.786,7.948 6.784,6.817 5.653,6.822 4.523,6.815 3.394,6.821 3.379,5.688 3.391,4.554 3.387,3.42 2.255,3.411 1.123,3.415 -0.01,3.418 -0.018,2.282 -0.016,1.146 -0.013,0.011 -1.145,0.008 -2.276,0.009 -3.408,0.01 c 0.003,-1.137 -10e-4,-2.276 0.003,-3.414 1.131,0.002 2.263,0.008 3.395,-0.003"
             style="fill:#421274;fill-opacity:1;fill-rule:nonzero;stroke:none"
             id="path198" /></g><g
           id="g200"
           transform="translate(352.0176,211.2344)"><path
             d="m 0,0 c -1.133,-0.002 -2.264,0.002 -3.396,-0.002 0,1.131 0,2.262 -10e-4,3.393 C -2.265,3.385 -1.133,3.394 0,3.385 0,2.258 -0.001,1.129 0,0 M 6.79,7.912 C 6.795,7.535 6.797,7.159 6.785,6.784 5.843,6.793 4.899,6.789 3.957,6.787 3.952,6.785 3.948,6.783 3.944,6.782 L 3.618,6.66 C 3.548,6.633 3.474,6.606 3.402,6.58 3.404,5.52 3.402,4.459 3.404,3.4 2.272,3.402 1.141,3.4 0.009,3.4 0.01,4.047 0.01,4.693 0.01,5.339 -1.062,4.963 -2.059,4.626 -3.034,4.309 L -3.405,4.186 c 0,-0.26 0,-0.522 -0.001,-0.784 C -4.253,3.396 -5.099,3.4 -5.945,3.398 -6.236,3.312 -6.527,3.225 -6.822,3.138 c 0.006,-2.179 0,-4.359 0.004,-6.538 -1.138,0.012 -2.274,-0.017 -3.41,0.015 0.026,1.86 0.024,3.716 0.018,5.573 -0.79,-0.209 -1.578,-0.415 -2.352,-0.605 -0.348,-0.086 -0.695,-0.167 -1.042,-0.249 0,-0.434 0,-0.867 -0.008,-1.301 -1.129,-0.076 -2.267,-0.013 -3.399,-0.031 v 0.57 c -0.316,-0.068 -0.632,-0.136 -0.946,-0.201 -0.673,-0.135 -1.341,-0.259 -2.01,-0.383 0.985,0 1.969,0.008 2.953,-0.006 -0.008,-1.131 -0.001,-2.263 -0.004,-3.392 1.14,-0.014 2.279,0.013 3.417,-0.016 -0.006,-1.129 -0.003,-2.26 -10e-4,-3.388 1.119,0.01 2.238,-0.005 3.357,0.008 0.03,-1.132 0.008,-2.266 0.011,-3.399 1.14,-0.021 2.279,0 3.42,-0.012 0.004,1.135 -0.002,2.271 0.003,3.405 1.137,0 2.275,0.005 3.414,-0.002 0.003,1.134 -0.001,2.27 0.002,3.405 1.136,-0.005 2.272,-0.011 3.409,0.003 -0.007,1.133 -0.004,2.265 -0.002,3.398 1.134,-0.008 2.269,-0.004 3.402,-0.004 0,1.135 -0.001,2.268 0,3.401 1.134,0.002 2.269,-0.004 3.402,0.002 0,1.13 0.003,2.257 -0.002,3.386 1.133,-0.004 2.265,0.002 3.398,-0.004 0.003,0.87 10e-4,1.74 0.002,2.609 C 9.227,8.943 8.229,8.511 7.215,8.09 Z"
             style="fill:#421274;fill-opacity:1;fill-rule:nonzero;stroke:none"
             id="path202" /></g><g
           id="g204"
           transform="translate(365.6221,221.4248)"><path
             d="m 0,0 c 0,0.252 0.001,0.505 0.001,0.757 -0.533,-0.256 -1.071,-0.509 -1.612,-0.76 0.537,0 1.073,0 1.611,0.003"
             style="fill:#421274;fill-opacity:1;fill-rule:nonzero;stroke:none"
             id="path206" /></g><g
           id="g208"
           transform="translate(396.6611,263.876)"><path
             d="m 0,0 c -4.109,6.097 -13.678,9.515 -26.995,9.667 h -0.002 c 0.002,-0.005 0.003,-0.01 0.003,-0.015 0.097,-0.738 0.205,-1.476 0.35,-2.213 h 0.003 c 12.164,-0.207 21.136,-3.335 24.723,-8.657 1.921,-2.85 2.275,-6.207 1.054,-9.973 -2.49,-7.68 -11.124,-16.074 -23.376,-23.236 -0.711,-0.417 -1.432,-0.83 -2.167,-1.238 -0.408,-0.225 -0.822,-0.449 -1.237,-0.672 -1.112,-0.598 -2.249,-1.186 -3.411,-1.762 -0.653,-0.324 -1.316,-0.642 -1.984,-0.959 -0.401,-0.189 -0.802,-0.379 -1.208,-0.566 -0.065,-0.029 -0.131,-0.059 -0.194,-0.088 -0.53,-0.242 -1.063,-0.483 -1.601,-0.721 -0.587,-0.259 -1.178,-0.515 -1.773,-0.767 -0.012,-0.006 -0.025,-0.01 -0.038,-0.016 -0.998,-0.422 -2.013,-0.832 -3.036,-1.236 -0.114,-0.045 -0.225,-0.093 -0.34,-0.138 -0.053,-0.02 -0.102,-0.042 -0.155,-0.063 -0.007,-0.002 -0.013,-0.006 -0.021,-0.008 -1.075,-0.42 -2.156,-0.818 -3.238,-1.207 -0.032,-0.012 -0.063,-0.024 -0.096,-0.035 -0.072,-0.027 -0.143,-0.051 -0.214,-0.076 -1.78,-0.637 -3.566,-1.235 -5.355,-1.792 -0.595,-0.186 -1.19,-0.373 -1.786,-0.549 -0.927,-0.277 -1.855,-0.539 -2.783,-0.792 -0.857,-0.235 -1.714,-0.461 -2.569,-0.676 -0.265,-0.066 -0.529,-0.127 -0.793,-0.191 -0.331,-0.079 -0.662,-0.161 -0.992,-0.239 -0.812,-0.191 -1.622,-0.373 -2.43,-0.549 -0.38,-0.083 -0.76,-0.168 -1.139,-0.246 -0.385,-0.078 -0.767,-0.152 -1.15,-0.226 -0.371,-0.072 -0.742,-0.143 -1.113,-0.211 -0.436,-0.08 -0.872,-0.161 -1.306,-0.237 -5.904,-1.031 -11.647,-1.574 -17.024,-1.574 -12.817,0 -22.298,3.16 -26.01,8.668 -1.921,2.851 -2.276,6.207 -1.054,9.975 1.348,4.158 4.499,8.524 9.046,12.793 v 0 c -0.009,0.026 -0.02,0.052 -0.03,0.078 -0.262,0.707 -0.533,1.414 -0.821,2.121 -0.004,0.01 -0.007,0.02 -0.011,0.03 -5.227,-4.752 -8.85,-9.668 -10.37,-14.355 -1.417,-4.371 -0.96,-8.472 1.323,-11.86 4.204,-6.239 14.122,-9.673 27.927,-9.673 5.782,0 11.974,0.61 18.33,1.771 0.753,0.138 1.506,0.278 2.263,0.431 0.381,0.076 0.763,0.16 1.145,0.242 0.213,0.047 0.426,0.09 0.64,0.137 0.096,0.02 0.191,0.04 0.286,0.061 0.499,0.109 0.997,0.22 1.498,0.335 0.328,0.076 0.657,0.157 0.985,0.236 0.267,0.064 0.533,0.125 0.8,0.192 0.86,0.211 1.723,0.443 2.586,0.675 0.327,0.088 0.654,0.166 0.981,0.257 0.595,0.164 1.191,0.334 1.785,0.507 1.192,0.348 2.382,0.709 3.573,1.09 0.157,0.051 0.314,0.104 0.472,0.156 0.02,0.006 0.039,0.014 0.06,0.02 1.013,0.33 2.025,0.673 3.036,1.027 0.107,0.037 0.212,0.079 0.319,0.118 0.332,0.117 0.663,0.244 0.995,0.364 0.752,0.272 1.506,0.54 2.255,0.825 0.052,0.02 0.104,0.04 0.155,0.059 0.226,0.085 0.452,0.168 0.676,0.255 0.693,0.27 1.379,0.543 2.06,0.823 0.214,0.086 0.424,0.176 0.636,0.264 0.013,0.006 0.028,0.012 0.042,0.018 0.92,0.382 1.826,0.774 2.724,1.172 0.217,0.096 0.436,0.192 0.652,0.288 1.153,0.518 2.287,1.049 3.401,1.59 1.016,0.492 2.014,0.994 2.996,1.504 0.133,0.07 0.266,0.139 0.398,0.209 15.134,7.947 26.014,17.902 28.964,26.999 C 2.738,-7.488 2.281,-3.388 0,0"
             style="fill:#421274;fill-opacity:1;fill-rule:nonzero;stroke:none"
             id="path210" /></g></g></g></g></svg>
