<?xml version="1.0" encoding="UTF-8" standalone="no"?>
<svg
   xmlns:dc="http://purl.org/dc/elements/1.1/"
   xmlns:cc="http://creativecommons.org/ns#"
   xmlns:rdf="http://www.w3.org/1999/02/22-rdf-syntax-ns#"
   xmlns:svg="http://www.w3.org/2000/svg"
   xmlns="http://www.w3.org/2000/svg"
   xmlns:sodipodi="http://sodipodi.sourceforge.net/DTD/sodipodi-0.dtd"
   xmlns:inkscape="http://www.inkscape.org/namespaces/inkscape"
   version="1.1"
   id="svg2"
   xml:space="preserve"
   width="154.10168"
   height="111.5204"
   viewBox="0 0 154.10169 111.5204"
   sodipodi:docname="logo-white.svg"
   inkscape:version="1.0.1 (3bc2e813f5, 2020-09-07)"><metadata
     id="metadata8"><rdf:RDF><cc:Work
         rdf:about=""><dc:format>image/svg+xml</dc:format><dc:type
           rdf:resource="http://purl.org/dc/dcmitype/StillImage" /><dc:title /></cc:Work></rdf:RDF></metadata><defs
     id="defs6"><clipPath
       clipPathUnits="userSpaceOnUse"
       id="clipPath22"><path
         d="M 0,459 H 682 V 0 H 0 Z"
         id="path20" /></clipPath></defs><sodipodi:namedview
     pagecolor="#000000"
     bordercolor="#666666"
     borderopacity="1"
     objecttolerance="10"
     gridtolerance="10"
     guidetolerance="10"
     inkscape:pageopacity="0"
     inkscape:pageshadow="2"
     inkscape:window-width="1456"
     inkscape:window-height="856"
     id="namedview4"
     showgrid="false"
     fit-margin-top="0"
     fit-margin-left="0"
     fit-margin-right="0"
     fit-margin-bottom="0"
     inkscape:zoom="6.4821579"
     inkscape:cx="103.00592"
     inkscape:cy="58.157192"
     inkscape:window-x="2120"
     inkscape:window-y="339"
     inkscape:window-maximized="0"
     inkscape:current-layer="g18"
     inkscape:document-rotation="0"
     inkscape:snap-smooth-nodes="true" /><g
     id="g10"
     inkscape:groupmode="layer"
     inkscape:label="444"
     transform="matrix(1.3333333,0,0,-1.3333333,-377.61586,379.54359)"><g
       id="g16"><g
         id="g18"
         clip-path="url(#clipPath22)"
         style="fill:#ffffff"><g
           id="g56"
           transform="translate(328.6904,280.1777)"
           style="fill:#ffffff"><path
             d="M 0,0 0.389,1.67 1.584,2.241 0.402,2.79 0,4.48 -0.389,2.81 -1.582,2.241 -0.403,1.691 Z"
             style="fill:#ffffff;fill-opacity:1;fill-rule:nonzero;stroke:none"
             id="path58" /></g><g
           id="g60"
           transform="translate(320.4497,274.8911)"
           style="fill:#ffffff"><path
             d="M 0,0 0.777,3.341 3.167,4.48 0.806,5.58 0,8.961 -0.777,5.62 -3.167,4.48 -0.806,3.382 Z"
             style="fill:#ffffff;fill-opacity:1;fill-rule:nonzero;stroke:none"
             id="path62" /></g><g
           id="g64"
           transform="translate(389.1631,260.9438)"
           style="fill:#ffffff"><path
             d="M 0,0 0.39,1.67 1.584,2.24 0.403,2.789 0,4.481 -0.389,2.81 -1.582,2.24 -0.402,1.691 Z"
             style="fill:#ffffff;fill-opacity:1;fill-rule:nonzero;stroke:none"
             id="path66" /></g><g
           id="g68"
           transform="translate(383.4424,255.6567)"
           style="fill:#ffffff"><path
             d="M 0,0 0.777,3.341 3.167,4.48 0.806,5.58 0,8.961 -0.777,5.62 -3.167,4.48 -0.806,3.382 Z"
             style="fill:#ffffff;fill-opacity:1;fill-rule:nonzero;stroke:none"
             id="path70" /></g><g
           id="g72"
           transform="translate(305.1602,226.3008)"
           style="fill:#ffffff"><path
             d="M 0,0 0.389,1.671 1.583,2.241 0.402,2.79 0,4.48 -0.389,2.81 -1.582,2.241 -0.403,1.691 Z"
             style="fill:#ffffff;fill-opacity:1;fill-rule:nonzero;stroke:none"
             id="path74" /></g><g
           id="g76"
           transform="translate(299.4395,221.0146)"
           style="fill:#ffffff"><path
             d="M 0,0 0.776,3.341 3.167,4.479 0.806,5.579 0,8.96 -0.777,5.62 -3.167,4.479 -0.806,3.382 Z"
             style="fill:#ffffff;fill-opacity:1;fill-rule:nonzero;stroke:none"
             id="path78" /></g><g
           id="g80"
           transform="translate(372.1621,213.8359)"
           style="fill:#ffffff"><path
             d="M 0,0 0.389,1.67 1.584,2.241 0.402,2.789 0,4.48 -0.389,2.811 -1.582,2.241 -0.403,1.691 Z"
             style="fill:#ffffff;fill-opacity:1;fill-rule:nonzero;stroke:none"
             id="path82" /></g><g
           id="g84"
           transform="translate(366.4414,208.5488)"
           style="fill:#ffffff"><path
             d="M 0,0 0.776,3.342 3.167,4.48 0.806,5.58 0,8.961 -0.777,5.621 -3.167,4.48 -0.806,3.383 Z"
             style="fill:#ffffff;fill-opacity:1;fill-rule:nonzero;stroke:none"
             id="path86" /></g><g
           id="g120"
           transform="translate(352.042,216.5781)"
           style="fill:#ffffff"><path
             id="path122"
             style="fill:#ffffff;fill-opacity:1;fill-rule:nonzero;stroke:none;stroke-width:1.33333"
             d="M 105.35938 85.388672 C 104.04334 85.974005 102.71333 86.549995 101.36133 87.111328 L 100.79492 87.347656 L 100.45117 87.492188 C 99.536505 87.866854 98.612307 88.23437 97.681641 88.595703 C 97.461641 88.681036 97.240245 88.76499 97.017578 88.847656 C 97.010911 88.850323 97.005333 88.854135 97 88.855469 L 96.564453 89.017578 C 96.47112 89.053578 96.373344 89.090333 96.277344 89.125 C 94.81201 89.682333 93.301437 90.237436 91.773438 90.773438 C 91.766769 90.776104 91.760573 90.77663 91.753906 90.779297 C 90.324573 91.28063 88.995316 91.729677 87.695312 92.152344 L 87.201172 92.316406 L 86.980469 92.388672 C 85.961802 92.715339 84.895786 93.041853 83.814453 93.367188 C 83.426453 93.481854 83.037865 93.596891 82.644531 93.712891 C 82.488531 93.759557 82.339594 93.807563 82.183594 93.851562 C 81.38226 94.086233 80.585156 94.315156 79.785156 94.535156 C 79.233156 94.687156 78.678953 94.832469 78.126953 94.980469 C 77.07362 95.259135 76.024187 95.533776 74.992188 95.787109 C 74.528184 95.901776 74.064233 96.009807 73.601562 96.119141 C 73.265563 96.200474 72.92975 96.282042 72.59375 96.359375 C 71.92175 96.515375 71.250745 96.665833 70.580078 96.8125 L 70.197266 96.894531 C 69.816559 96.975731 69.439914 97.054901 69.060547 97.134766 C 69.060547 97.134766 69.058594 97.134766 69.058594 97.134766 C 68.637884 97.225296 68.216875 97.315805 67.798828 97.402344 C 66.901495 97.582344 66.011141 97.748729 65.119141 97.914062 C 66.432474 97.914062 67.742684 97.903208 69.054688 97.921875 C 69.044017 99.429875 69.054781 100.93998 69.050781 102.44531 C 70.570781 102.46398 72.088135 102.42618 73.605469 102.46484 C 73.597469 103.97018 73.602802 105.47842 73.605469 106.98242 C 75.097469 106.96909 76.588078 106.98999 78.080078 106.97266 C 78.120078 108.48199 78.091703 109.99324 78.095703 111.50391 C 79.615703 111.53191 81.134917 111.50353 82.65625 111.51953 C 82.661583 110.0062 82.65349 108.49247 82.660156 106.98047 C 84.176156 106.98047 85.692267 106.97309 87.210938 106.98242 C 87.214937 105.47042 87.210844 103.95669 87.214844 102.44336 C 88.72951 102.45003 90.243766 102.45812 91.759766 102.43945 C 91.750432 100.92879 91.755146 99.41887 91.757812 97.908203 C 93.269816 97.91887 94.782302 97.914062 96.292969 97.914062 C 96.292969 96.400729 96.291635 94.889573 96.292969 93.378906 C 97.804969 93.37624 99.317478 93.384953 100.82812 93.376953 C 100.82812 91.870286 100.83284 90.366661 100.82617 88.861328 C 102.33684 88.866661 103.84676 88.859184 105.35742 88.867188 C 105.36142 87.707184 105.358 86.547339 105.35938 85.388672 z M 91.751953 93.363281 C 93.261286 93.363281 94.769964 93.360615 96.279297 93.363281 L 96.279297 93.365234 C 94.769964 93.362568 93.261286 93.365234 91.751953 93.365234 L 91.751953 93.363281 z "
             transform="matrix(0.75000002,0,0,-0.75000002,-68.830098,68.0796)" /></g><g
           id="g124"
           transform="translate(348.6211,211.2324)"
           style="fill:#ffffff" /><g
           id="g132"
           transform="translate(335.0117,258.8237)"
           style="fill:#ffffff"><path
             id="path134"
             style="fill:#ffffff;fill-opacity:1;fill-rule:nonzero;stroke:none;stroke-width:1.33333"
             d="M 105.35156 11.728516 C 88.814246 11.731216 72.276948 11.728428 55.738281 11.732422 C 55.674281 11.743092 55.545182 11.765344 55.478516 11.777344 C 55.390516 13.26401 55.465406 14.78063 55.441406 16.279297 C 53.932073 16.280597 52.423404 16.280597 50.914062 16.279297 C 50.906062 17.791297 50.925014 19.303693 50.902344 20.818359 C 49.394344 20.805029 47.889487 20.819847 46.382812 20.810547 C 46.373512 22.322547 46.379653 23.836276 46.376953 25.349609 C 44.866286 25.346909 43.35575 25.349037 41.84375 25.347656 C 41.84505 26.859656 41.839003 28.373385 41.845703 29.886719 C 40.335036 29.880019 38.822547 29.886233 37.310547 29.880859 C 37.309247 31.394193 37.310547 32.908542 37.310547 34.421875 C 35.798547 34.445875 34.286057 34.429034 32.775391 34.427734 C 32.774091 35.935734 32.776151 37.441219 32.773438 38.949219 C 31.26543 38.942519 29.75924 38.951359 28.253906 38.943359 C 28.233906 40.454026 28.249541 41.966516 28.244141 43.478516 C 26.734807 43.490516 25.22551 43.484469 23.714844 43.480469 C 23.704174 44.995135 23.706934 46.510096 23.710938 48.023438 C 22.201596 48.027438 20.692927 48.026691 19.183594 48.025391 C 19.187594 49.541391 19.184079 51.058839 19.189453 52.576172 C 20.697453 52.573472 22.20551 52.567331 23.714844 52.582031 C 23.709544 54.098031 23.694666 55.614859 23.722656 57.130859 C 25.234656 57.124159 26.743859 57.114776 28.255859 57.134766 C 28.227859 58.629432 28.254906 60.124474 28.240234 61.619141 C 29.748234 61.617841 31.253099 61.625934 32.759766 61.615234 C 32.793096 63.133901 32.763964 64.653828 32.777344 66.173828 C 34.28801 66.167128 35.798547 66.177922 37.310547 66.169922 C 37.306547 67.685922 37.313341 69.200797 37.306641 70.716797 C 38.819974 70.723497 40.33237 70.716709 41.845703 70.720703 C 41.839003 72.234036 41.841703 73.747052 41.845703 75.261719 C 43.35637 75.259019 44.86762 75.262479 46.376953 75.259766 C 46.386253 76.773099 46.363955 78.288068 46.390625 79.802734 C 47.901292 79.790734 49.409255 79.806369 50.919922 79.792969 C 50.906592 81.300969 50.914716 82.808406 50.916016 84.316406 C 52.418682 84.319106 53.922495 84.295472 55.423828 84.326172 C 55.491828 85.835505 55.375139 87.356513 55.480469 88.867188 C 56.977802 88.847184 58.477276 88.878236 59.974609 88.851562 C 59.978609 90.252904 59.978516 91.655307 59.978516 93.056641 C 60.829182 92.921974 61.682969 92.785432 62.542969 92.634766 C 63.237635 92.512099 63.893297 92.394057 64.529297 92.275391 C 65.49063 92.095391 66.398432 91.920854 67.259766 91.742188 C 67.830432 91.624854 68.430781 91.498042 69.050781 91.359375 C 69.050781 91.358725 69.050781 91.358072 69.050781 91.357422 C 69.962781 91.158755 70.928469 90.938786 71.980469 90.689453 L 72.318359 90.611328 C 72.749026 90.509995 73.180661 90.402828 73.611328 90.298828 C 73.614028 89.816161 73.614581 89.331656 73.613281 88.847656 C 72.094615 88.846356 70.575927 88.840209 69.058594 88.849609 C 69.057294 85.816276 69.065388 82.784667 69.054688 79.75 C 67.54668 79.818 66.037917 79.768627 64.53125 79.779297 C 64.52995 76.753964 64.530677 73.730411 64.529297 70.705078 C 63.017297 70.705078 61.503568 70.710472 59.990234 70.701172 L 59.990234 57.123047 C 59.335568 57.100377 58.683344 57.024504 58.027344 57.089844 C 57.17801 57.020514 56.327237 57.108453 55.476562 57.064453 C 55.483266 52.541787 55.468375 48.01876 55.484375 43.496094 C 67.572375 43.502794 79.660047 43.496667 91.748047 43.498047 C 96.27338 43.492747 100.79693 43.509651 105.32227 43.488281 C 105.37557 48.009614 105.31426 52.530781 105.35156 57.050781 C 105.0769 57.094781 104.80263 57.123465 104.5293 57.078125 C 103.3093 57.043455 102.08523 57.091498 100.86523 57.048828 C 100.75323 57.479495 100.79567 57.926568 100.79297 58.365234 L 100.79297 70.710938 C 99.286294 70.701634 97.782677 70.709731 96.277344 70.707031 C 96.289344 73.712365 96.259629 76.719276 96.292969 79.724609 C 94.784969 79.859276 93.255615 79.748543 91.738281 79.783203 C 91.739581 81.447203 91.742187 83.108818 91.742188 84.771484 C 93.174187 84.251484 94.410313 83.788557 95.570312 83.337891 C 95.81032 83.243221 96.052969 83.144115 96.292969 83.050781 C 96.292969 81.964115 96.295016 80.881589 96.291016 79.794922 C 97.788349 79.802922 99.286458 79.791284 100.78516 79.804688 C 100.86516 79.130013 100.81948 78.449437 100.83008 77.773438 C 100.82708 75.42143 100.84117 73.072703 100.82227 70.720703 C 102.33293 70.719403 103.84347 70.717256 105.35547 70.722656 C 105.35447 66.189323 105.3765 61.652474 105.3418 57.119141 C 106.8458 57.133811 108.35209 57.114839 109.85742 57.130859 C 109.90542 52.586859 109.85823 48.040713 109.88086 43.498047 C 115.91888 43.500747 121.95932 43.498621 128 43.5 C 127.988 46.510667 127.995 49.522443 128 52.537109 C 126.49333 52.601109 124.98261 52.54917 123.47461 52.5625 C 123.43861 54.0625 123.46858 55.564453 123.45898 57.064453 C 122.70298 57.041783 121.94741 57.070956 121.19141 57.097656 C 120.44074 57.088356 119.6895 57.026936 118.9375 57.072266 C 118.9042 58.585599 118.94352 60.098615 118.91992 61.613281 C 117.40926 61.615981 115.90002 61.592293 114.39062 61.626953 C 114.37732 63.14162 114.42049 64.659161 114.36719 66.173828 C 112.86985 66.149828 111.37686 66.175627 109.88086 66.154297 C 109.84886 69.15963 109.84411 72.165922 109.88281 75.169922 C 108.38415 75.340589 106.86799 75.205574 105.36133 75.240234 C 105.32663 76.552234 105.34245 77.863781 105.34375 79.175781 C 106.87708 78.467781 108.38142 77.74062 109.85742 77.001953 C 111.00942 76.42462 112.14705 75.839427 113.26172 75.246094 C 112.12705 75.247394 110.99209 75.246854 109.85742 75.244141 C 110.99209 75.246841 112.1251 75.245441 113.25977 75.244141 C 113.64243 75.041474 114.0172 74.837526 114.39453 74.630859 C 115.9492 73.785526 117.46674 72.924828 118.94141 72.048828 C 118.94041 71.607495 118.94235 71.167276 118.93555 70.724609 C 119.66888 70.720609 120.39886 70.722656 121.13086 70.722656 C 121.93086 70.226656 122.71433 69.726656 123.48633 69.222656 C 123.47933 68.20399 123.4586 67.184682 123.5 66.166016 C 124.98667 66.178016 126.4717 66.170475 127.95703 66.171875 C 127.97703 66.158545 127.99302 66.144199 128.01172 66.130859 C 128.00472 64.626859 128.01072 63.123141 128.01172 61.619141 C 129.52372 61.620441 131.0348 61.619713 132.54688 61.621094 C 132.53984 60.12376 132.55402 58.628193 132.54102 57.130859 C 134.05435 57.120189 135.56541 57.124253 137.08008 57.126953 C 137.08708 55.60962 137.08908 54.092885 137.08008 52.574219 C 138.59608 52.571519 140.11743 52.572919 141.63477 52.574219 C 141.63577 51.059552 141.62872 49.545917 141.63672 48.03125 C 140.11939 48.02058 138.60132 48.028644 137.08398 48.027344 C 137.08398 46.511344 137.08903 44.995135 137.08203 43.480469 C 135.57003 43.487169 134.05497 43.485022 132.54297 43.482422 C 132.54597 41.969089 132.55321 40.455987 132.53711 38.945312 C 131.02511 38.940012 129.51457 38.963641 128.00391 38.931641 C 128.01991 37.431641 128.00172 35.933594 128.01172 34.433594 C 126.50639 34.433594 125.004 34.427547 123.5 34.435547 C 123.4653 32.919547 123.49303 31.401385 123.48633 29.886719 C 121.97033 29.881419 120.45607 29.882816 118.94141 29.882812 C 118.95041 28.373479 118.93522 26.864182 118.94922 25.353516 C 117.43455 25.338846 115.92482 25.352309 114.41016 25.349609 C 114.40916 23.836276 114.41016 22.3245 114.41016 20.8125 L 109.87695 20.8125 C 109.87195 19.299167 109.88804 17.786771 109.86914 16.273438 C 108.36514 16.285438 106.86204 16.268503 105.35938 16.283203 C 105.35434 14.764536 105.36556 13.247182 105.35156 11.728516 z M 82.646484 16.294922 C 88.695818 16.294922 94.743628 16.292222 100.79297 16.294922 C 100.78597 17.802922 100.79811 19.311693 100.78711 20.818359 C 99.284435 20.807689 97.78001 20.809806 96.277344 20.816406 C 96.284044 22.327073 96.27855 23.838323 96.28125 25.347656 C 94.766583 25.347656 93.253568 25.349703 91.740234 25.345703 C 91.738934 26.857703 91.738184 28.372146 91.742188 29.882812 C 90.228846 29.878812 88.717078 29.89365 87.205078 29.875 C 87.187748 31.392333 87.216123 32.910401 87.189453 34.427734 C 85.67612 34.435734 84.161771 34.433688 82.648438 34.429688 L 82.648438 38.951172 C 81.14443 38.944472 79.641339 38.949966 78.138672 38.947266 C 78.135972 38.289932 78.200002 37.628656 78.138672 36.972656 C 78.045342 36.135323 78.242672 35.294984 78.138672 34.458984 C 76.629339 34.377654 75.115422 34.485637 73.607422 34.404297 C 73.616722 32.898964 73.611975 31.393385 73.609375 29.886719 C 72.092042 29.878719 70.575927 29.886233 69.058594 29.880859 C 69.058594 28.368859 69.063894 26.85513 69.058594 25.341797 C 67.559243 25.397777 66.049342 25.262195 64.556641 25.421875 L 64.556641 25.419922 L 64.480469 25.400391 C 64.588469 23.873724 64.50458 22.3405 64.53125 20.8125 C 63.016583 20.8005 61.499661 20.836969 59.986328 20.792969 C 59.996998 19.298302 59.990234 17.802641 59.990234 16.306641 C 67.540901 16.279971 75.093151 16.304242 82.646484 16.294922 z M 50.931641 20.824219 C 52.432974 20.837549 53.934833 20.82337 55.4375 20.830078 C 55.45617 22.340745 55.393902 23.856514 55.476562 25.367188 C 56.969903 25.356514 58.461745 25.370075 59.955078 25.359375 C 60.007078 26.868708 59.965799 28.381911 59.980469 29.892578 C 61.491135 29.915248 63.003005 29.886873 64.513672 29.908203 C 64.510972 31.417536 64.506225 32.925594 64.515625 34.433594 C 66.018292 34.432294 67.521391 34.447205 69.025391 34.421875 C 69.082721 35.928542 69.040922 37.439266 69.044922 38.947266 C 64.523589 38.947266 60.001182 38.946505 55.478516 38.949219 C 55.478516 37.443885 55.475816 35.939547 55.478516 34.435547 C 53.959849 34.412877 52.441161 34.464203 50.923828 34.408203 C 50.934498 32.89887 50.927734 31.389573 50.927734 29.878906 C 49.418401 29.890906 47.906531 29.878819 46.394531 29.882812 C 46.397231 28.376146 46.389134 26.871281 46.398438 25.363281 C 47.911771 25.359281 49.424167 25.376216 50.9375 25.353516 C 50.9215 23.842849 50.930341 22.333552 50.931641 20.824219 z M 59.972656 20.824219 L 59.974609 20.824219 C 59.977909 21.581552 59.974943 22.337318 59.974609 23.09375 C 59.974443 22.33725 59.976656 21.580885 59.972656 20.824219 z M 100.83008 20.824219 C 103.83941 20.833519 106.84933 20.824704 109.86133 20.830078 C 109.86133 22.342078 109.85833 23.853846 109.86133 25.367188 C 109.85233 26.871187 109.883 28.374906 109.8457 29.878906 C 108.3457 29.882906 106.8457 29.879479 105.3457 29.880859 C 105.3417 31.390193 105.33761 32.901443 105.34961 34.412109 C 103.83228 34.458779 102.31749 34.418207 100.79883 34.435547 C 100.78153 35.938214 100.79597 37.442646 100.79297 38.945312 C 102.30897 38.946616 103.82446 38.945886 105.3418 38.947266 C 103.8258 38.945966 102.30897 38.948566 100.79297 38.947266 C 96.268961 38.955266 91.740797 38.933001 87.216797 38.957031 C 87.207497 37.447698 87.218284 35.936448 87.208984 34.425781 C 88.722318 34.452451 90.23276 34.424076 91.746094 34.441406 C 91.762094 32.929406 91.751953 31.41825 91.751953 29.90625 C 93.265286 29.89158 94.780255 29.907738 96.294922 29.898438 C 96.294922 28.385096 96.286081 26.871995 96.300781 25.361328 C 97.799448 25.373328 99.298168 25.353694 100.79688 25.371094 C 100.87158 23.856427 100.81008 22.340219 100.83008 20.824219 z M 114.39258 25.365234 L 114.39453 25.365234 C 114.39453 26.871901 114.39529 28.377479 114.39258 29.882812 L 114.39062 29.882812 C 114.39366 28.376146 114.39258 26.871901 114.39258 25.365234 z M 118.91016 29.888672 C 118.95016 31.403339 118.92013 32.92088 118.92773 34.435547 C 118.92473 35.939547 118.92673 37.443266 118.92773 38.947266 C 115.9104 38.949966 112.89491 38.943172 109.87891 38.951172 C 109.87591 37.444505 109.87081 35.937687 109.88281 34.429688 C 111.39215 34.441688 112.90073 34.432847 114.41406 34.435547 C 114.40606 32.923547 114.4112 31.412391 114.4082 29.900391 C 115.90954 29.895091 117.40882 29.912672 118.91016 29.888672 z M 50.917969 34.429688 L 50.919922 34.429688 C 50.905252 35.936354 50.918809 37.443172 50.912109 38.951172 C 50.918776 37.443172 50.904635 35.936354 50.917969 34.429688 z M 44.126953 34.431641 C 44.88112 34.429141 45.634672 34.431698 46.388672 34.457031 C 46.362005 35.953031 46.389047 37.451266 46.373047 38.947266 C 43.359714 38.951266 40.345365 38.943172 37.332031 38.951172 C 37.310701 37.452505 37.345123 35.951172 37.314453 34.451172 C 38.830453 34.416502 40.347901 34.446177 41.865234 34.435547 C 42.618568 34.441547 43.372786 34.434141 44.126953 34.431641 z M 28.269531 43.492188 C 35.817531 43.504188 43.365443 43.497394 50.912109 43.496094 C 50.921409 48.037427 50.900505 52.58038 50.921875 57.123047 C 52.428542 57.125747 53.937313 57.122286 55.445312 57.125 C 55.438612 60.963667 55.441406 64.801958 55.441406 68.640625 C 55.449406 69.335292 55.412562 70.031276 55.476562 70.724609 C 56.975237 70.709939 58.475943 70.729544 59.974609 70.714844 C 59.982609 72.230844 59.975816 73.745719 59.978516 75.261719 C 59.979816 76.772385 59.975816 78.286828 59.978516 79.798828 C 59.990516 81.305495 59.952 82.812313 60 84.320312 C 61.505333 84.312313 63.010292 84.310979 64.515625 84.320312 C 64.516925 85.829654 64.515625 87.337703 64.515625 88.845703 C 63.018292 88.847003 61.522104 88.841609 60.023438 88.849609 C 59.952764 87.338943 60.009424 85.826453 59.996094 84.314453 C 58.49076 84.302453 56.981904 84.3112 55.476562 84.3125 C 55.479266 82.803167 55.477866 81.292443 55.476562 79.787109 C 53.959229 79.775109 52.441161 79.792606 50.923828 79.753906 C 50.927828 78.249906 50.941252 76.745568 50.919922 75.240234 C 49.414589 75.254904 47.90901 75.240633 46.402344 75.25 C 46.386344 73.736667 46.394434 72.222937 46.398438 70.710938 C 44.887763 70.701634 43.373948 70.708331 41.863281 70.707031 C 41.863281 69.197698 41.847771 67.684495 41.869141 66.173828 C 40.355807 66.141828 38.841458 66.184344 37.328125 66.152344 C 37.321425 64.637677 37.332316 63.124042 37.320312 61.609375 C 35.813646 61.616075 34.307448 61.603884 32.800781 61.617188 C 32.776781 60.115846 32.823484 58.614615 32.771484 57.113281 C 32.062151 57.157281 31.353865 57.024701 30.644531 57.082031 C 29.848531 57.172701 29.055154 57.017793 28.257812 57.064453 C 28.269816 55.57112 28.247484 54.079271 28.271484 52.585938 C 26.758151 52.537934 25.243182 52.581733 23.728516 52.564453 C 23.720516 51.056453 23.721816 49.54707 23.728516 48.039062 C 25.239182 48.040366 26.750432 48.041109 28.259766 48.037109 C 28.265066 46.522443 28.248161 45.006854 28.269531 43.492188 z "
             transform="matrix(0.75000002,0,0,-0.75000002,-51.799798,25.834)" /></g><g
           id="g136"
           transform="translate(358.8066,255.4482)"
           style="fill:#ffffff" /><g
           id="g140"
           transform="translate(318.0034,258.8149)"
           style="fill:#ffffff" /><g
           id="g144"
           transform="translate(375.8086,258.8306)"
           style="fill:#ffffff" /><g
           id="g152"
           transform="translate(341.7852,218.0176)"
           style="fill:#ffffff"><path
             d="m 0,0 c 0,-0.07 0,-0.139 0,-0.208 0.248,0.067 0.492,0.142 0.739,0.21 C 0.493,0.002 0.246,0.003 0,0"
             style="fill:#ffffff;fill-opacity:1;fill-rule:nonzero;stroke:none"
             id="path154" /></g><g
           id="g156"
           transform="translate(344.8496,214.2695)"
           style="fill:#ffffff" /><g
           id="g160"
           transform="translate(346.0723,214.6328)"
           style="fill:#ffffff" /><g
           id="g168"
           transform="translate(356.4736,218.2109)"
           style="fill:#ffffff" /><g
           id="g172"
           transform="translate(382.6074,248.6299)"
           style="fill:#ffffff" /><g
           id="g176"
           transform="translate(358.8193,224.8145)"
           style="fill:#ffffff"><path
             d="m 0,0 c -0.009,-0.352 -0.01,-0.704 -0.012,-1.057 0.471,0.202 0.94,0.403 1.405,0.608 C 1.73,-0.3 2.063,-0.147 2.398,0.004 1.599,0.008 0.799,0.055 0,0"
             style="fill:#ffffff;fill-opacity:1;fill-rule:nonzero;stroke:none"
             id="path178" /></g><g
           id="g180"
           transform="translate(328.1963,224.8086)"
           style="fill:#ffffff" /><g
           id="g184"
           transform="translate(331.6084,218.0117)"
           style="fill:#ffffff" /><g
           id="g188"
           transform="translate(336.1475,212.0488)"
           style="fill:#ffffff" /><g
           id="g192"
           transform="translate(365.6055,226.9062)"
           style="fill:#ffffff" /><g
           id="g196"
           transform="translate(301.0083,248.6289)"
           style="fill:#ffffff" /><g
           id="g200"
           transform="translate(352.0176,211.2344)"
           style="fill:#ffffff" /><g
           id="g204"
           transform="translate(365.6221,221.4248)"
           style="fill:#ffffff"><path
             d="m 0,0 c 0,0.252 0.001,0.505 0.001,0.757 -0.533,-0.256 -1.071,-0.509 -1.612,-0.76 0.537,0 1.073,0 1.611,0.003"
             style="fill:#ffffff;fill-opacity:1;fill-rule:nonzero;stroke:none"
             id="path206" /></g><g
           id="g208"
           transform="translate(396.6611,263.876)"
           style="fill:#ffffff"><path
             d="m 0,0 c -4.109,6.097 -13.678,9.515 -26.995,9.667 h -0.002 c 0.002,-0.005 0.003,-0.01 0.003,-0.015 0.097,-0.738 0.205,-1.476 0.35,-2.213 h 0.003 c 12.164,-0.207 21.136,-3.335 24.723,-8.657 1.921,-2.85 2.275,-6.207 1.054,-9.973 -2.49,-7.68 -11.124,-16.074 -23.376,-23.236 -0.711,-0.417 -1.432,-0.83 -2.167,-1.238 -0.408,-0.225 -0.822,-0.449 -1.237,-0.672 -1.112,-0.598 -2.249,-1.186 -3.411,-1.762 -0.653,-0.324 -1.316,-0.642 -1.984,-0.959 -0.401,-0.189 -0.802,-0.379 -1.208,-0.566 -0.065,-0.029 -0.131,-0.059 -0.194,-0.088 -0.53,-0.242 -1.063,-0.483 -1.601,-0.721 -0.587,-0.259 -1.178,-0.515 -1.773,-0.767 -0.012,-0.006 -0.025,-0.01 -0.038,-0.016 -0.998,-0.422 -2.013,-0.832 -3.036,-1.236 -0.114,-0.045 -0.225,-0.093 -0.34,-0.138 -0.053,-0.02 -0.102,-0.042 -0.155,-0.063 -0.007,-0.002 -0.013,-0.006 -0.021,-0.008 -1.075,-0.42 -2.156,-0.818 -3.238,-1.207 -0.032,-0.012 -0.063,-0.024 -0.096,-0.035 -0.072,-0.027 -0.143,-0.051 -0.214,-0.076 -1.78,-0.637 -3.566,-1.235 -5.355,-1.792 -0.595,-0.186 -1.19,-0.373 -1.786,-0.549 -0.927,-0.277 -1.855,-0.539 -2.783,-0.792 -0.857,-0.235 -1.714,-0.461 -2.569,-0.676 -0.265,-0.066 -0.529,-0.127 -0.793,-0.191 -0.331,-0.079 -0.662,-0.161 -0.992,-0.239 -0.812,-0.191 -1.622,-0.373 -2.43,-0.549 -0.38,-0.083 -0.76,-0.168 -1.139,-0.246 -0.385,-0.078 -0.767,-0.152 -1.15,-0.226 -0.371,-0.072 -0.742,-0.143 -1.113,-0.211 -0.436,-0.08 -0.872,-0.161 -1.306,-0.237 -5.904,-1.031 -11.647,-1.574 -17.024,-1.574 -12.817,0 -22.298,3.16 -26.01,8.668 -1.921,2.851 -2.276,6.207 -1.054,9.975 1.348,4.158 4.499,8.524 9.046,12.793 v 0 c -0.009,0.026 -0.02,0.052 -0.03,0.078 -0.262,0.707 -0.533,1.414 -0.821,2.121 -0.004,0.01 -0.007,0.02 -0.011,0.03 -5.227,-4.752 -8.85,-9.668 -10.37,-14.355 -1.417,-4.371 -0.96,-8.472 1.323,-11.86 4.204,-6.239 14.122,-9.673 27.927,-9.673 5.782,0 11.974,0.61 18.33,1.771 0.753,0.138 1.506,0.278 2.263,0.431 0.381,0.076 0.763,0.16 1.145,0.242 0.213,0.047 0.426,0.09 0.64,0.137 0.096,0.02 0.191,0.04 0.286,0.061 0.499,0.109 0.997,0.22 1.498,0.335 0.328,0.076 0.657,0.157 0.985,0.236 0.267,0.064 0.533,0.125 0.8,0.192 0.86,0.211 1.723,0.443 2.586,0.675 0.327,0.088 0.654,0.166 0.981,0.257 0.595,0.164 1.191,0.334 1.785,0.507 1.192,0.348 2.382,0.709 3.573,1.09 0.157,0.051 0.314,0.104 0.472,0.156 0.02,0.006 0.039,0.014 0.06,0.02 1.013,0.33 2.025,0.673 3.036,1.027 0.107,0.037 0.212,0.079 0.319,0.118 0.332,0.117 0.663,0.244 0.995,0.364 0.752,0.272 1.506,0.54 2.255,0.825 0.052,0.02 0.104,0.04 0.155,0.059 0.226,0.085 0.452,0.168 0.676,0.255 0.693,0.27 1.379,0.543 2.06,0.823 0.214,0.086 0.424,0.176 0.636,0.264 0.013,0.006 0.028,0.012 0.042,0.018 0.92,0.382 1.826,0.774 2.724,1.172 0.217,0.096 0.436,0.192 0.652,0.288 1.153,0.518 2.287,1.049 3.401,1.59 1.016,0.492 2.014,0.994 2.996,1.504 0.133,0.07 0.266,0.139 0.398,0.209 15.134,7.947 26.014,17.902 28.964,26.999 C 2.738,-7.488 2.281,-3.388 0,0"
             style="fill:#ffffff;fill-opacity:1;fill-rule:nonzero;stroke:none"
             id="path210" /></g></g></g></g></svg>
